<?xml version="1.0" encoding="utf-8"?>
<svg xmlns="http://www.w3.org/2000/svg" xmlns:xlink="http://www.w3.org/1999/xlink" style="margin: auto; background: rgb(241, 242, 243); display: block; shape-rendering: auto;" width="200px" height="200px" viewBox="0 0 100 100" preserveAspectRatio="xMidYMid">
<g transform="translate(50 50)">
<g>
<animateTransform attributeName="transform" type="rotate" values="0;45" keyTimes="0;1" dur="0.4081632653061225s" repeatCount="indefinite"></animateTransform><path d="M17.13913650100261 -5.5 L24.13913650100261 -5.5 L24.13913650100261 5.5 L17.13913650100261 5.5 A18 18 0 0 1 16.008286940066835 8.23011234701481 L16.008286940066835 8.23011234701481 L20.95803440837267 13.179859815320642 L13.179859815320642 20.95803440837267 L8.23011234701481 16.008286940066835 A18 18 0 0 1 5.500000000000003 17.13913650100261 L5.500000000000003 17.13913650100261 L5.5000000000000036 24.13913650100261 L-5.499999999999999 24.13913650100261 L-5.5 17.13913650100261 A18 18 0 0 1 -8.230112347014812 16.00828694006683 L-8.230112347014812 16.00828694006683 L-13.179859815320643 20.958034408372665 L-20.95803440837266 13.179859815320647 L-16.00828694006683 8.230112347014815 A18 18 0 0 1 -17.13913650100261 5.499999999999999 L-17.13913650100261 5.499999999999999 L-24.13913650100261 5.5 L-24.13913650100261 -5.499999999999995 L-17.13913650100261 -5.499999999999996 A18 18 0 0 1 -16.008286940066835 -8.23011234701481 L-16.008286940066835 -8.23011234701481 L-20.95803440837267 -13.179859815320643 L-13.17985981532064 -20.95803440837267 L-8.230112347014808 -16.008286940066835 A18 18 0 0 1 -5.500000000000009 -17.139136501002607 L-5.500000000000009 -17.139136501002607 L-5.500000000000011 -24.139136501002607 L5.5 -24.13913650100261 L5.500000000000002 -17.13913650100261 A18 18 0 0 1 8.230112347014803 -16.00828694006684 L8.230112347014803 -16.00828694006684 L13.179859815320635 -20.958034408372672 L20.95803440837267 -13.179859815320643 L16.008286940066835 -8.23011234701481 A18 18 0 0 1 17.139136501002607 -5.50000000000001 M0 -9A9 9 0 1 0 0 9 A9 9 0 1 0 0 -9" fill="#727a7e"></path></g></g>
<!-- [ldio] generated by https://loading.io/ --></svg>